<?xml version="1.0" encoding="iso-8859-1"?>
<!-- Generator: Adobe Illustrator 19.0.0, SVG Export Plug-In . SVG Version: 6.00 Build 0)  -->
<svg version="1.1" id="Capa_1" xmlns="http://www.w3.org/2000/svg" xmlns:xlink="http://www.w3.org/1999/xlink" x="0px" y="0px"
	 viewBox="0 0 435.7 435.7" style="enable-background:new 0 0 435.7 435.7;" xml:space="preserve">
<g>
	<g>
		<path d="M345.554,0.2c-0.6-0.1-1.2-0.2-1.8-0.2h-252c-5.6,0.1-10.1,4.8-10,10.4c0,0.6,0.1,1.2,0.2,1.7l27,138.4
			c7.9,40.3,37.5,73,76.9,84.9V250h-8.5c-5.6,0-10.6,4.7-10.6,10.2v125c0.1,13.4,5.5,26.3,15,35.7c9.6,9.5,22.6,14.8,36.1,14.8
			c27.9,0,50.9-22.7,50.9-50.5v-125c0-5.5-5-10.2-10.5-10.2h-8.5v-14.6c39.3-11.9,68.9-44.5,76.9-84.8l27.1-138.4
			C354.854,6.6,351.154,1.2,345.554,0.2z M248.754,385.2c-0.1,16.9-13.9,30.5-30.8,30.5c-8.2,0-16.1-3.2-21.9-8.9
			c-5.8-5.7-9.2-13.4-9.3-21.6V382h62V385.2z M248.754,362h-62v-92h62V362z M205.754,250v-76h24v76H205.754z M306.954,146.6
			c-6.2,30.9-27.8,56.5-57.2,67.7v-50.4c0-5.5-4.9-9.9-10.4-9.9h-43.2c-5.5,0-10.4,4.4-10.4,9.9v50.4
			c-29.5-11.2-51.1-36.8-57.3-67.8L103.854,20h227.8L306.954,146.6z"/>
	</g>
</g>
<g>
</g>
<g>
</g>
<g>
</g>
<g>
</g>
<g>
</g>
<g>
</g>
<g>
</g>
<g>
</g>
<g>
</g>
<g>
</g>
<g>
</g>
<g>
</g>
<g>
</g>
<g>
</g>
<g>
</g>
</svg>
